<svg width="362" height="353" viewBox="0 0 362 353" fill="none" xmlns="http://www.w3.org/2000/svg">
<path fill-rule="evenodd" clip-rule="evenodd" d="M362 0.000331631C361.833 0.000110567 361.667 0 361.5 0C163.177 0 0 156.511 0 352.5C0 352.667 0.000118043 352.833 0.000354052 353H48.0004C48.0001 352.833 48 352.667 48 352.5C48 184.329 188.359 48 361.5 48C361.667 48 361.833 48.0001 362 48.0004V0.000331631ZM362 75.027C360.669 75.009 359.336 75 358 75C201.703 75 75 198.346 75 350.5C75 351.334 75.0038 352.168 75.0114 353H123.001C123 352.833 123 352.667 123 352.5C123 225.751 228.213 123 358 123C359.336 123 360.669 123.011 362 123.033V75.027ZM362 157.046C360.504 157.015 359.004 157 357.5 157C244.18 157 152.283 244.706 152.001 353H362V157.046Z" fill="#3B6CE1"/>
</svg>
