<svg width="330" height="323" viewBox="0 0 330 323" fill="none" xmlns="http://www.w3.org/2000/svg">
<path fill-rule="evenodd" clip-rule="evenodd" d="M329.966 323C329.966 322.85 329.966 322.699 329.966 322.549C329.966 143.383 180.953 0.477489 0 0.240723V48.2408C155.767 48.4769 281.966 171.199 281.966 322.549C281.966 322.699 281.966 322.85 281.966 323H329.966ZM251.327 323C251.334 322.25 251.337 321.499 251.337 320.747C251.337 184.85 139.139 74.4641 0 72.5876V115.833C115.256 117.712 208.096 209.542 208.096 322.549C208.096 322.699 208.096 322.85 208.096 323H251.327ZM181.07 323C180.82 226.738 100.213 148.533 0 146.475V323H181.07Z" fill="white"/>
</svg>
